<?xml version="1.0" standalone="no"?><!DOCTYPE svg PUBLIC "-//W3C//DTD SVG 1.1//EN" "http://www.w3.org/Graphics/SVG/1.1/DTD/svg11.dtd"><svg t="1557732032523" class="icon" style="" viewBox="0 0 1024 1024" version="1.1" xmlns="http://www.w3.org/2000/svg" p-id="3146" xmlns:xlink="http://www.w3.org/1999/xlink" width="200" height="200"><defs><style type="text/css"></style></defs><path d="M329.142857 204.8C268.580571 204.8 219.428571 158.939429 219.428571 102.4 219.428571 45.860571 268.580571 0 329.142857 0S438.857143 45.860571 438.857143 102.4c0 56.539429-49.152 102.4-109.714286 102.4z m0 409.6C268.580571 614.4 219.428571 568.539429 219.428571 512c0-56.539429 49.152-102.4 109.714286-102.4S438.857143 455.460571 438.857143 512c0 56.539429-49.152 102.4-109.714286 102.4z m0 409.6C268.580571 1024 219.428571 978.139429 219.428571 921.6c0-56.539429 49.152-102.4 109.714286-102.4s109.714286 45.860571 109.714286 102.4c0 56.539429-49.152 102.4-109.714286 102.4z m365.714286-819.2C634.294857 204.8 585.142857 158.939429 585.142857 102.4 585.142857 45.860571 634.294857 0 694.857143 0S804.571429 45.860571 804.571429 102.4c0 56.539429-49.152 102.4-109.714286 102.4z m0 409.6C634.294857 614.4 585.142857 568.539429 585.142857 512c0-56.539429 49.152-102.4 109.714286-102.4S804.571429 455.460571 804.571429 512c0 56.539429-49.152 102.4-109.714286 102.4z m0 409.6c-60.562286 0-109.714286-45.860571-109.714286-102.4 0-56.539429 49.152-102.4 109.714286-102.4s109.714286 45.860571 109.714286 102.4c0 56.539429-49.152 102.4-109.714286 102.4z" fill="#BCC2CE" p-id="3147"></path></svg>